# xmcd
#
# Track frame offsets:
#	150
#	26922
#	44902
#	71166
#	91020
#	102561
#	128355
#	150532
#	166201
#	186306
#
# Disc length: 2778 seconds
#
# Revision: 0
# Processed by: cddbd v1.5.2PL0 Copyright (c) Steve Scherf et al.
# Submitted via: dBpowerAMP V4.0
#
DISCID=850ad80a
DTITLE=Calvin Cooke - Heaven
DYEAR=2003
DGENRE=Sacred Steel
TTITLE0=Christian Stand
TTITLE1=Help Me Make It Through
TTITLE2=Heaven
TTITLE3=I Feel The Light
TTITLE4=Jewell Praise
TTITLE5=What Happens To Them All
TTITLE6=Signs Of The Judgement
TTITLE7=Music
TTITLE8=Motor City Preacher Man
TTITLE9=Look At The People
EXTD=
EXTT0=
EXTT1=
EXTT2=
EXTT3=
EXTT4=
EXTT5=
EXTT6=
EXTT7=
EXTT8=
EXTT9=
PLAYORDER=
